<svg xmlns="http://www.w3.org/2000/svg" viewBox="0 0 132 75.65"><title>logo_essential_site</title><path d="M73,6.82l-5.63,5.63,2.81,2.81-1.41,1.41-1.4-1.41h0L66,13.85l-2.81,2.82-1.41-1.41,2.82-2.82h0L60.38,8.22h0l-4.22,4.22h0L59,15.26l-1.41,1.4-4.22-4.22L59.82,6h8.44L64.6,9.63,66,11,71.07,6h0l2-2H59l-8.47,8.47,1.4,1.4h0l4.22,4.22,1.4,1.41L59,18.07h0l1.4-1.4,1.41,1.4-1.41,1.41h0L59,20.89l2.81,2.81-1.41,1.41-2.81-2.82h0l-4.21,4.22,1.4,1.41,1.41,1.41h0l1.41,1.4,2.81-2.81,1.41,1.4-4.22,4.22-6.48-6.47V18.63l3.66,3.66,1.41-1.41-5.07-5.07h0l-2-2h0V27.89h0l8.47,8.47L59,35h0l5.63-5.63-2.81-2.81,1.41-1.4,1.4,1.4h0L66,27.92l2.81-2.81,1.41,1.4L67.4,29.33h0l4.22,4.22h0l2.82-2.82,1.4-1.4h0L73,26.51l1.41-1.4,4.22,4.22-6.48,6.48H63.74l3.66-3.66L66,30.74l-5.06,5.07h0l-2,2H73l8.47-8.47-1.4-1.41h0L75.84,23.7h0l-1.4-1.4L73,23.7h0l-1.4,1.41L70.22,23.7l1.41-1.41h0l1.4-1.4-2.81-2.82,1.41-1.4,2.81,2.81h0l4.21-4.22h0l-1.4-1.4-1.41-1.41L74.44,11h0l-2.81,2.81-1.41-1.4,4.22-4.22,6.48,6.48v8.44l-3.66-3.66-1.41,1.4L80.92,26h0l2,2h0V13.89h0L74.44,5.41,73,6.82ZM59,12.45,60.38,11l1.4,1.4-1.41,1.41ZM57.56,27.92l-1.41-1.41,1.41-1.41L59,26.51ZM73,29.33l-1.41,1.41-1.4-1.41,1.41-1.41ZM66,16.67l1.41,1.4L66,19.48l-1.41-1.41Zm-4.22,4.22,1.41-1.41,1.4,1.41-1.4,1.4ZM66,25.11,64.59,23.7,66,22.29l1.41,1.41Zm4.22-4.22-1.41,1.4-1.4-1.4,1.4-1.41Zm4.22-7,1.41,1.41-1.41,1.41L73,15.26Z" style="fill:#b19750"/><path d="M74.65,0H57.35L45.11,12.24v17.3L57.35,41.77h17.3L86.89,29.54V12.24ZM84.9,28.72,73.83,39.79H58.17L47.1,28.72V13.06L58.17,2H73.83L84.9,13.06Z" style="fill:#b19750"/><path d="M7.71,49.39c0-1.1-.38-1.44-1.57-1.44H5.76V47.5h1c.68,0,4.39.09,4.41.09.53,0,4.06-.09,4.82-.09h1l.05,3.64h-.41c-.07-1.89-.83-2.65-2.61-2.65H10.48v6.4h3.07c1.19,0,1.85-.62,2-2L16,53V58H15.6c-.2-1.58-.94-2.2-2.71-2.2H10.45v5.84c0,1,.43,1.44,1.3,1.44h2.53a3.65,3.65,0,0,0,3.56-2.51h.45l-1.06,3.55c-.74,0-4.24-.09-5.41-.09-.79,0-4.57.06-5.43.09H5.73v-.48h.41c1.19,0,1.57-.37,1.57-1.47Z" style="fill:#b19750"/><path d="M20,60.28a4.38,4.38,0,0,0,1.45,2.17,5,5,0,0,0,3.27,1.1c2.18,0,3.66-1.27,3.66-3.1,0-1.36-.71-2.09-3.35-3.47a12,12,0,0,1-3.71-2.6,4.13,4.13,0,0,1-1.12-2.9c0-2.6,1.91-4.32,4.78-4.32a10.23,10.23,0,0,1,2.81.43,4.67,4.67,0,0,0,1,.17.34.34,0,0,0,.38-.23h.44l0,3.55h-.36a4.81,4.81,0,0,0-.71-1.69A3.9,3.9,0,0,0,25.4,48c-1.83,0-3,1-3,2.4,0,1.24.69,1.95,3.12,3.19,3.13,1.6,5,3,5,5.69,0,3.05-2.23,5.11-5.55,5.11a11.09,11.09,0,0,1-2.7-.37,5.21,5.21,0,0,0-.91-.14.63.63,0,0,0-.61.31H20.3l-.05-.4c-.2-1.29-.43-2.51-.61-3.32Z" style="fill:#b19750"/><path d="M32.18,60.28a4.37,4.37,0,0,0,1.44,2.17,5,5,0,0,0,3.28,1.1c2.18,0,3.65-1.27,3.65-3.1,0-1.36-.71-2.09-3.35-3.47a12,12,0,0,1-3.7-2.6,4.13,4.13,0,0,1-1.12-2.9c0-2.6,1.9-4.32,4.77-4.32a10.3,10.3,0,0,1,2.82.43,4.58,4.58,0,0,0,1,.17.36.36,0,0,0,.38-.23h.43l0,3.55h-.35a4.81,4.81,0,0,0-.71-1.69A3.9,3.9,0,0,0,37.56,48c-1.83,0-3,1-3,2.4,0,1.24.68,1.95,3.12,3.19,3.12,1.6,5,3,5,5.69,0,3.05-2.23,5.11-5.56,5.11A11,11,0,0,1,34.41,64a5.21,5.21,0,0,0-.91-.14.62.62,0,0,0-.61.31h-.43l-.05-.4c-.21-1.29-.44-2.51-.61-3.32Z" style="fill:#b19750"/><path d="M45.5,49.39c0-1.1-.38-1.44-1.58-1.44h-.38V47.5h1c.69,0,4.4.09,4.42.09.53,0,4.06-.09,4.82-.09h1l.05,3.64h-.41c-.07-1.89-.83-2.65-2.61-2.65H48.27v6.4h3.07c1.19,0,1.85-.62,2-2l.45,0V58h-.43c-.2-1.58-.94-2.2-2.71-2.2H48.24v5.84q0,1.44,1.29,1.44h2.54a3.65,3.65,0,0,0,3.56-2.51h.45L55,64.14c-.74,0-4.24-.09-5.41-.09-.79,0-4.57.06-5.43.09h-.66v-.48h.4c1.2,0,1.58-.37,1.58-1.47Z" style="fill:#b19750"/><path d="M59.33,49.22A3.14,3.14,0,0,0,57.4,48h-.13V47.5h.06l2.46.09c.33,0,1.29-.09,1.49-.09h.41l9.67,11.7V50c0-1.46-.58-2-2-2h-.44V47.5h.46l2.41.09c.26,0,1.7-.09,2-.09h.81V48H74c-1.35.12-1.7.51-1.7,1.81V64.34h-.46l-11.55-14V60.87c0,2.2.46,2.79,2.13,2.79h.43v.48H62.4c-.35,0-2.11-.09-2.51-.09-.23,0-1.85.09-2.21.09h-.41v-.48c1.71-.17,2.06-.48,2.06-1.83Z" style="fill:#b19750"/><path d="M81.19,48.69H78.12c-1.81,0-2.26.48-2.42,2.48h-.43l.08-4h.41a1.66,1.66,0,0,0,.58.31,2.31,2.31,0,0,0,.69.09H88.12a1.71,1.71,0,0,0,1.27-.4h.4l.08,4h-.43c-.16-2-.61-2.48-2.41-2.48H84v13.5c0,.93.26,1.47,1.6,1.47h.38v.48H85.2c-.41,0-2.46-.09-2.92-.09s-1.57.09-2.36.09h-.71v-.48h.45c1.15,0,1.53-.37,1.53-1.47Z" style="fill:#b19750"/><path d="M92.65,49.42c0-1.1-.38-1.47-1.57-1.47H90.7V47.5h.71c.53,0,2.56.09,2.92.09s1.55-.06,2.33-.09h.71V48H97c-1.17,0-1.55.37-1.55,1.47v12.8c0,1.1.38,1.47,1.57,1.47h.38v.45h-.71c-.43,0-2.26-.09-2.92-.09s-1.57.06-2.36.09H90.7v-.45h.38c1.19,0,1.57-.37,1.57-1.47Z" style="fill:#b19750"/><path d="M105.8,47.22h.86l4.93,13.59c1,2.85,1.75,2.85,2.61,2.85v.48h-.66c-.41,0-2.41-.09-2.79-.09-.71,0-1.22.09-2.11.09h-.78v-.48c.66,0,1.32,0,1.32-1a4.75,4.75,0,0,0-.36-1.58l-1.14-3.07h-4.77l-1,2.82a5.18,5.18,0,0,0-.33,1.63c0,1.16,1,1.16,1.54,1.16v.48h-.53c-.3,0-1.72-.09-2.16-.09s-1.06.09-1.6.09h-.6v-.48c1.6,0,1.9-.42,3.09-3.78Zm-.53,4.12-2,5.69h4Z" style="fill:#b19750"/><path d="M117,49.42c0-1.1-.38-1.47-1.58-1.47h-.38V47.5h.71c.43,0,2.57.09,2.92.09s1.58-.09,2.36-.09h.71l0,.45h-.38c-1.2,0-1.58.37-1.58,1.47V61.94c0,1,.41,1.21,1.93,1.21,2.41,0,3.25-.5,4.32-2.56h.43l-1.07,3.55h-.48c-.51,0-3.73-.09-5.79-.09-1.22,0-3.07.09-3.47.09H115l0-.45h.38c1.2,0,1.58-.37,1.58-1.44Z" style="fill:#b19750"/><path d="M39.75,70.36c-.47-.46-.57-.51-1-.51v-.16h0c.24,0,.47,0,.71,0l.74,0,4.39,4.65-.05-3.79c0-.5-.24-.7-.79-.7h-.22v-.16l1.06,0c.34,0,.68,0,1,0v.16h-.2c-.39,0-.6.17-.6.5l.08,5.29h-.11l-4.74-5,.07,4.19c0,.42.22.6.72.6h.34v.16l-1.11,0-1.11,0V75.4h.25a.62.62,0,0,0,.65-.61Z" style="fill:#b19750"/><path d="M47,70.49c0-.52-.11-.63-.59-.63h-.23v-.17c.42,0,.84,0,1.26,0s.85,0,1.27,0v.17h-.3c-.48,0-.6.11-.6.63v3.29c0,1.09.72,1.68,2,1.68s1.79-.52,1.79-1.58V70.49c0-.52-.1-.63-.59-.63h-.23v-.17h0l1,0c.37,0,.73,0,1.09,0h0v.17h-.3c-.49,0-.6.11-.6.63v3.25c0,1.22-.92,1.91-2.55,1.91S47,75,47,73.85Z" style="fill:#b19750"/><path d="M56,70h-1.7c-.49,0-.62.12-.68,1h-.16l0-1.37h0a.9.9,0,0,0,.27.11,1.77,1.77,0,0,0,.37,0h4.52a1.7,1.7,0,0,0,.37,0,.9.9,0,0,0,.27-.11h0l0,1.37h-.16c-.07-.83-.19-1-.68-1H56.84v4.82c0,.5.1.61.59.61h.23v.16c-.42,0-.84,0-1.27,0s-.84,0-1.26,0V75.4h.3c.49,0,.59-.11.59-.61Z" style="fill:#b19750"/><path d="M63.81,74.2l-.94-1.4s-.13-.13-.5-.13l-.46,0v2.07c0,.52.1.63.59.63h.32v.16l-1.21,0c-.44,0-.87,0-1.31,0V75.4h.2c.49,0,.59-.11.59-.63V70.49c0-.52-.1-.63-.58-.63h-.22V69.7c.71-.07,1.7-.12,2.22-.13,1.38,0,2.25.57,2.25,1.46,0,.57-.32,1-1.21,1.46l.55.78c.53.74,1.05,1.46,1.2,1.64a1.12,1.12,0,0,0,1,.5h.36v.14a8.29,8.29,0,0,1-1.1.1c-.73,0-.84-.17-1.4-1Zm-1.9-1.72a3.69,3.69,0,0,0,.56,0c.94,0,1.36-.39,1.36-1.28a1.37,1.37,0,0,0-1.46-1.53,4.09,4.09,0,0,0-.46,0Z" style="fill:#b19750"/><path d="M67.6,70.49c0-.52-.1-.63-.58-.63h-.24v-.17c.43,0,.84,0,1.27,0s.84,0,1.26,0v.17H69c-.48,0-.59.11-.59.63v4.28c0,.52.1.63.58.63h.24v.16l-1.27,0c-.43,0-.84,0-1.27,0V75.4H67c.49,0,.6-.11.6-.63Z" style="fill:#b19750"/><path d="M72.26,70h-1.7c-.49,0-.62.12-.68,1h-.16l0-1.37h0a.9.9,0,0,0,.27.11,1.77,1.77,0,0,0,.37,0h4.52a1.7,1.7,0,0,0,.37,0,.9.9,0,0,0,.27-.11h0l0,1.37h-.16c-.07-.83-.19-1-.68-1H73.08v4.82c0,.5.1.61.59.61h.23v.16c-.42,0-.84,0-1.27,0s-.84,0-1.26,0V75.4h.3c.49,0,.59-.11.59-.61Z" style="fill:#b19750"/><path d="M76.94,70.49c0-.52-.1-.63-.58-.63h-.24v-.17c.43,0,.84,0,1.27,0s.84,0,1.27,0v.17h-.31c-.48,0-.59.11-.59.63v4.28c0,.52.1.63.58.63h.24v.16c-.43,0-.84,0-1.27,0s-.84,0-1.27,0V75.4h.31c.48,0,.59-.11.59-.63Z" style="fill:#b19750"/><path d="M82.42,69.57a3.12,3.12,0,0,1,3.3,3.05,3,3,0,0,1-3.09,3,3.16,3.16,0,0,1-3.38-3A3,3,0,0,1,82.42,69.57Zm-2.23,3c0,1,.28,2.88,2.38,2.88,1.72,0,2.21-1.08,2.21-2.87,0-1.29-.39-2.89-2.32-2.89C81,69.73,80.19,70.33,80.19,72.61Z" style="fill:#b19750"/><path d="M87.41,70.36c-.48-.46-.58-.51-1-.51v-.16h0l.7,0,.74,0,4.4,4.65-.06-3.79c0-.5-.23-.7-.78-.7h-.23v-.16l1.07,0c.34,0,.67,0,1,0v.16h-.2c-.4,0-.61.17-.61.5l.08,5.29h-.1l-4.74-5,.06,4.19c0,.42.23.6.72.6h.35v.16l-1.11,0-1.11,0V75.4h.24a.63.63,0,0,0,.66-.61Z" style="fill:#b19750"/><rect y="40.24" width="49.95" height="0.51" style="fill:#b19750"/><rect x="3.18" y="41.58" width="49.95" height="0.37" style="fill:#b19750"/><rect x="82.05" y="40.24" width="49.95" height="0.51" style="fill:#b19750"/><rect x="78.87" y="41.58" width="49.95" height="0.37" style="fill:#b19750"/></svg>